<?xml version="1.0" encoding="utf-8"?>
<!-- Generator: Adobe Illustrator 19.2.1, SVG Export Plug-In . SVG Version: 6.00 Build 0)  -->
<svg version="1.1" id="Layer_1" xmlns="http://www.w3.org/2000/svg" xmlns:xlink="http://www.w3.org/1999/xlink" x="0px" y="0px"
	 viewBox="0 0 66 66" style="enable-background:new 0 0 66 66;" xml:space="preserve">
<style type="text/css">
	.st0{fill:#FFFFFF;}
</style>
<title> copy</title>
<desc>Created with Sketch.</desc>
<g id="Page-1">
	<g id="Desktop-HD-Copy-9" transform="translate(-577.000000, -647.000000)">
		<path id="_xE053_-copy" class="st0" d="M643,679.9c0,0.5-0.2,1-0.6,1.4s-0.9,0.6-1.5,0.6h-28.9v20.9c0,2.8-1,5.2-3,7.2
			s-4.4,3-7.2,3s-5.2-1-7.2-3s-3-4.4-3-7.2c0-0.6,0.2-1.1,0.6-1.5s0.9-0.6,1.4-0.6s1.1,0.2,1.5,0.6s0.6,0.9,0.6,1.5
			c0,1.6,0.6,3.1,1.7,4.3s2.6,1.8,4.3,1.8s3.1-0.6,4.3-1.8s1.8-2.6,1.8-4.3v-20.9h-28.9c-0.6,0-1.1-0.2-1.5-0.6s-0.6-0.9-0.6-1.4
			c0-8,2.8-14.4,8.2-19.1s13.1-7.3,22.7-7.5v-4.1c0-0.6,0.2-1.1,0.6-1.5s0.9-0.6,1.4-0.6s1.1,0.2,1.5,0.6s0.6,0.9,0.6,1.5v4.1
			c9.6,0.3,17.2,2.8,22.7,7.5S643,671.9,643,679.9z M638.9,677.8c-0.5-6.5-3.3-11.6-8.4-15.2s-11.9-5.4-20.6-5.4s-15.5,1.8-20.5,5.4
			s-7.8,8.7-8.3,15.2H638.9z"/>
	</g>
</g>
</svg>
